<svg xmlns="http://www.w3.org/2000/svg" width="273" height="35" viewBox="0 0 273 35">
    <g data-name="Rechteck 9" style="fill:#fff;stroke:#1c87af;stroke-width:2px">
        <rect width="273" height="35" rx="17.5" style="stroke:none"/>
        <rect x="1" y="1" width="271" height="33" rx="16.5" style="fill:none"/>
    </g>
    <path data-name="Pfad 77" d="m3.394 0 .972-2.985h4.723L10.061 0h2.966L8.514-13.091H4.947L.428 0zm1.675-5.146L6.68-10.1h.1l1.613 4.954zM14.6 0h2.685v-1.572h.121A2.9 2.9 0 0 0 20.192.16c2.237 0 3.982-1.771 3.982-5.056 0-3.375-1.822-5.05-3.976-5.05a2.893 2.893 0 0 0-2.793 1.777h-.083v-4.922H14.6zm2.665-4.909c0-1.751.741-2.87 2.065-2.87 1.349 0 2.065 1.17 2.065 2.87s-.729 2.9-2.065 2.9c-1.311.002-2.065-1.149-2.065-2.9zm11.442-8.182h-2.723V0h2.723zM35.354.192c2.429 0 4.065-1.183 4.449-3l-2.518-.166A1.849 1.849 0 0 1 35.4-1.841a2.135 2.135 0 0 1-2.224-2.365v-.006h6.686v-.748c0-3.337-2.02-4.986-4.615-4.986-2.889 0-4.762 2.052-4.762 5.082-.001 3.113 1.846 5.056 4.869 5.056zM33.175-5.9a2.074 2.074 0 0 1 2.115-2.013A1.935 1.935 0 0 1 37.3-5.9zm11.186.224a1.828 1.828 0 0 1 1.892-2.007A1.68 1.68 0 0 1 48-5.766V0h2.723v-6.251c.006-2.3-1.349-3.695-3.394-3.695a2.9 2.9 0 0 0-2.929 1.86h-.115v-5h-2.647V0h2.723zm11.237 0a1.811 1.811 0 0 1 1.86-2.007A1.684 1.684 0 0 1 59.2-5.766V0h2.723v-6.251c0-2.288-1.342-3.695-3.388-3.695a2.966 2.966 0 0 0-2.953 1.86h-.112v-1.732h-2.6V0h2.73zM68.542.192c2.429 0 4.065-1.183 4.449-3l-2.518-.166a1.849 1.849 0 0 1-1.886 1.138 2.135 2.135 0 0 1-2.224-2.365v-.006h6.686v-.753c0-3.337-2.02-4.986-4.615-4.986-2.889 0-4.762 2.052-4.762 5.082-.001 3.113 1.846 5.056 4.87 5.056zM66.362-5.9a2.074 2.074 0 0 1 2.116-2.013A1.935 1.935 0 0 1 70.485-5.9zm11.186.224a1.811 1.811 0 0 1 1.86-2.007 1.684 1.684 0 0 1 1.745 1.918V0h2.723v-6.251c0-2.288-1.342-3.695-3.388-3.695a2.966 2.966 0 0 0-2.953 1.86h-.115v-1.732h-2.6V0h2.723z" transform="translate(94 24)" style="fill:#1c87af"/>
</svg>
