<svg xmlns="http://www.w3.org/2000/svg" width="273" height="35" viewBox="0 0 273 35">
    <g data-name="Rechteck 9" style="fill:#fff;stroke:#1c87af;stroke-width:2px">
        <rect width="273" height="35" rx="17.5" style="stroke:none"/>
        <rect x="1" y="1" width="271" height="33" rx="16.5" style="fill:none"/>
    </g>
    <path data-name="Pfad 81" d="M-3.973-13.091v9.128c-.006 1.263-.569 1.924-1.591 1.924a1.519 1.519 0 0 1-1.611-1.643H-9.93C-9.943-1.067-8.076.179-5.7.179c2.653 0 4.462-1.6 4.468-4.142v-9.128zM3.794.185a3.015 3.015 0 0 0 2.87-1.547h.076V0h2.583v-6.622c0-2.339-1.982-3.324-4.168-3.324-2.352 0-3.9 1.125-4.276 2.915l2.518.2a1.643 1.643 0 0 1 1.745-1.127c.927 0 1.457.467 1.457 1.272v.038c0 .633-.671.716-2.378.882-1.942.179-3.687.831-3.687 3.024C.534-.8 1.921.185 3.794.185zm.78-1.879c-.837 0-1.438-.39-1.438-1.138 0-.767.633-1.144 1.592-1.278a6.548 6.548 0 0 0 1.892-.441v1.042a1.884 1.884 0 0 1-2.047 1.815z" transform="translate(136.978 24)" style="fill:#1c87af"/>
</svg>
