<svg xmlns="http://www.w3.org/2000/svg" width="273" height="35" viewBox="0 0 273 35">
    <g data-name="Rechteck 9" style="fill:#1c87af;stroke:#1c87af;stroke-width:2px">
        <rect width="273" height="35" rx="17.5" style="stroke:none"/>
        <rect x="1" y="1" width="271" height="33" rx="16.5" style="fill:none"/>
    </g>
    <path data-name="Pfad 82" d="M-7.952-13.091h-2.755v8.233h-.115l-5.65-8.233H-18.9V0h2.768v-8.239h.1L-10.342 0h2.391zM-1.247.192c2.429 0 4.065-1.183 4.449-3L.684-2.979A1.849 1.849 0 0 1-1.2-1.841a2.135 2.135 0 0 1-2.226-2.365v-.006H3.26v-.748c0-3.337-2.02-4.986-4.615-4.986-2.889 0-4.762 2.052-4.762 5.082 0 3.113 1.847 5.056 4.87 5.056zM-3.426-5.9A2.074 2.074 0 0 1-1.31-7.913 1.935 1.935 0 0 1 .7-5.9zM5.037 0H7.76v-9.818H5.037zM6.4-11.084a1.435 1.435 0 0 0 1.477-1.381A1.434 1.434 0 0 0 6.4-13.839a1.432 1.432 0 0 0-1.47 1.374 1.433 1.433 0 0 0 1.47 1.381zm6.251 5.408a1.811 1.811 0 0 1 1.86-2.007 1.684 1.684 0 0 1 1.745 1.918V0h2.723v-6.251c0-2.288-1.342-3.695-3.388-3.695a2.966 2.966 0 0 0-2.953 1.86h-.115v-1.732h-2.6V0h2.723z" transform="translate(136.978 24)" style="fill:#fff"/>
</svg>
