<svg data-name="Btn_Ok/Signup/Login" xmlns="http://www.w3.org/2000/svg" width="273" height="35" viewBox="0 0 273 35">
    <g data-name="Rechteck 9" style="fill:#1c87af;stroke:#1c87af;stroke-width:2px">
        <rect width="273" height="35" rx="17.5" style="stroke:none"/>
        <rect x="1" y="1" width="271" height="33" rx="16.5" style="fill:none"/>
    </g>
    <path data-name="Pfad 68" d="M-25.741-9.326h2.653c-.038-2.333-1.956-3.944-4.871-3.944-2.87 0-4.973 1.585-4.96 3.963-.006 1.93 1.355 3.036 3.567 3.567l1.425.358c1.425.345 2.218.754 2.224 1.636-.006.959-.914 1.611-2.32 1.611-1.438 0-2.474-.665-2.563-1.975h-2.678c.07 2.832 2.1 4.3 5.273 4.3 3.2 0 5.075-1.528 5.082-3.925-.006-2.18-1.649-3.337-3.925-3.848l-1.176-.281c-1.138-.262-2.09-.684-2.071-1.624 0-.844.748-1.464 2.1-1.464 1.326-.004 2.138.597 2.24 1.626zM-21.107 0h2.723v-9.818h-2.723zm1.368-11.084a1.435 1.435 0 0 0 1.477-1.381 1.434 1.434 0 0 0-1.477-1.374 1.432 1.432 0 0 0-1.47 1.374 1.433 1.433 0 0 0 1.47 1.381zm7.952 14.97c2.806 0 4.8-1.278 4.8-3.79v-9.914h-2.7v1.649h-.1A2.912 2.912 0 0 0-12.6-9.946c-2.154 0-3.976 1.675-3.976 5.018 0 3.266 1.771 4.788 3.982 4.788a2.851 2.851 0 0 0 2.8-1.6h.115v1.8c0 1.349-.863 1.873-2.045 1.873A1.945 1.945 0 0 1-13.756.812l-2.518.339c.326 1.549 1.841 2.735 4.487 2.735zm.058-6.072c-1.336 0-2.065-1.061-2.065-2.755 0-1.668.716-2.838 2.065-2.838 1.323 0 2.065 1.119 2.065 2.838s-.755 2.755-2.065 2.755zm9.639-3.49A1.811 1.811 0 0 1-.23-7.683a1.684 1.684 0 0 1 1.745 1.917V0h2.723v-6.251C4.238-8.54 2.9-9.946.85-9.946a2.966 2.966 0 0 0-2.95 1.86h-.115v-1.732h-2.6V0h2.725zm20.78-7.415v8.265a2.492 2.492 0 0 1-2.659 2.576 2.5 2.5 0 0 1-2.659-2.576v-8.265H10.6v8.5c0 2.864 2.16 4.775 5.427 4.775s5.427-1.911 5.427-4.775v-8.5zm4.993 16.773h2.723v-5.254h.083A2.9 2.9 0 0 0 29.275.16c2.237 0 3.982-1.771 3.982-5.056 0-3.375-1.822-5.05-3.976-5.05a2.893 2.893 0 0 0-2.793 1.777h-.121v-1.649h-2.684zm2.665-8.591c0-1.751.741-2.87 2.065-2.87 1.349 0 2.065 1.17 2.065 2.87s-.729 2.9-2.065 2.9c-1.313.002-2.065-1.149-2.065-2.9z" transform="translate(136.978 24)" style="fill:#fff"/>
</svg>
