<svg xmlns="http://www.w3.org/2000/svg" width="273" height="35" viewBox="0 0 273 35">
    <g data-name="Rechteck 9" style="fill:#1c87af;stroke:#1c87af;stroke-width:2px">
        <rect width="273" height="35" rx="17.5" style="stroke:none"/>
        <rect x="1" y="1" width="271" height="33" rx="16.5" style="fill:none"/>
    </g>
    <path data-name="Pfad 74" d="M8.239-9.326h2.653c-.038-2.333-1.956-3.944-4.871-3.944-2.87 0-4.973 1.585-4.96 3.963-.006 1.931 1.355 3.036 3.567 3.567l1.425.358c1.425.345 2.218.754 2.224 1.636-.006.959-.914 1.611-2.32 1.611-1.438 0-2.474-.665-2.563-1.975H.716c.07 2.832 2.1 4.3 5.273 4.3 3.2 0 5.075-1.528 5.082-3.925-.006-2.18-1.649-3.337-3.925-3.848L5.97-7.868c-1.138-.263-2.09-.684-2.07-1.624 0-.844.748-1.464 2.1-1.464 1.325 0 2.137.601 2.239 1.63zm4.635 13.008H15.6v-5.254h.083A2.9 2.9 0 0 0 18.467.16c2.233 0 3.982-1.771 3.982-5.06 0-3.375-1.822-5.05-3.976-5.05a2.893 2.893 0 0 0-2.793 1.781h-.121v-1.649h-2.685zm2.665-8.591c0-1.751.741-2.87 2.065-2.87 1.349 0 2.065 1.17 2.065 2.87s-.729 2.9-2.065 2.9c-1.311.002-2.065-1.149-2.065-2.9zM28.732.192c2.429 0 4.065-1.183 4.449-3l-2.518-.166a1.849 1.849 0 0 1-1.886 1.138 2.135 2.135 0 0 1-2.224-2.365v-.006h6.686v-.753c0-3.337-2.02-4.986-4.615-4.986-2.889 0-4.762 2.052-4.762 5.082-.001 3.113 1.847 5.056 4.87 5.056zM26.553-5.9a2.074 2.074 0 0 1 2.116-2.013A1.935 1.935 0 0 1 30.675-5.9zM35.016 0h2.723v-9.818h-2.723zm1.368-11.084a1.435 1.435 0 0 0 1.477-1.381 1.434 1.434 0 0 0-1.477-1.374 1.432 1.432 0 0 0-1.47 1.374 1.433 1.433 0 0 0 1.469 1.381zM44.348.192c2.614 0 4.257-1.534 4.385-3.79h-2.57a1.748 1.748 0 0 1-1.783 1.636c-1.272 0-2.1-1.067-2.1-2.947 0-1.854.831-2.915 2.1-2.915a1.75 1.75 0 0 1 1.783 1.636h2.57c-.115-2.269-1.834-3.758-4.4-3.758-2.979 0-4.82 2.065-4.82 5.075.003 2.985 1.812 5.063 4.835 5.063zm8.859-5.868A1.828 1.828 0 0 1 55.1-7.683a1.68 1.68 0 0 1 1.751 1.918V0h2.723v-6.251c.006-2.3-1.349-3.695-3.394-3.695a2.9 2.9 0 0 0-2.934 1.86h-.115v-5h-2.647V0h2.723zM66.2.192c2.429 0 4.065-1.183 4.449-3l-2.518-.166a1.849 1.849 0 0 1-1.886 1.138 2.135 2.135 0 0 1-2.224-2.365v-.006H70.7v-.753c0-3.337-2.02-4.986-4.615-4.986-2.889 0-4.762 2.052-4.762 5.082.002 3.113 1.85 5.056 4.877 5.056zM64.016-5.9a2.074 2.074 0 0 1 2.116-2.013A1.935 1.935 0 0 1 68.139-5.9zM72.479 0H75.2v-5.555a1.982 1.982 0 0 1 2.084-2.039 4.58 4.58 0 0 1 1.151.147v-2.416a4.087 4.087 0 0 0-.857-.1A2.385 2.385 0 0 0 75.222-8.1h-.1v-1.718h-2.64zM82.56-5.676a1.811 1.811 0 0 1 1.86-2.007 1.684 1.684 0 0 1 1.745 1.918V0h2.723v-6.251c0-2.288-1.342-3.695-3.388-3.695a2.966 2.966 0 0 0-2.953 1.86h-.115v-1.732h-2.6V0h2.728z" transform="translate(92 24)" style="fill:#fff"/>
</svg>
