<svg xmlns="http://www.w3.org/2000/svg" width="273" height="35" viewBox="0 0 273 35">
    <g data-name="Rechteck 9" style="fill:#fff;stroke:#1c87af;stroke-width:2px">
        <rect width="273" height="35" rx="17.5" style="stroke:none"/>
        <rect x="1" y="1" width="271" height="33" rx="16.5" style="fill:none"/>
    </g>
    <path data-name="Pfad 61" d="M5.778 0c3.989 0 6.4-2.467 6.4-6.558s-2.416-6.533-6.366-6.533H1.138V0zM3.905-2.371v-8.348H5.67c2.455 0 3.752 1.253 3.752 4.161s-1.3 4.187-3.758 4.187zM18.614.192c2.979 0 4.832-2.039 4.832-5.062 0-3.043-1.854-5.075-4.832-5.075s-4.832 2.033-4.832 5.075C13.781-1.847 15.635.192 18.614.192zm.013-2.109c-1.374 0-2.077-1.259-2.077-2.972s.7-2.979 2.077-2.979c1.349 0 2.052 1.266 2.052 2.979s-.704 2.971-2.053 2.971zM26.917 0h2.876l1.687-6.175h.12L33.29 0h2.883l2.665-9.818h-2.749l-1.5 6.558h-.079L32.9-9.818h-2.7l-1.585 6.6h-.089L27-9.818h-2.755zm16.089-5.676a1.811 1.811 0 0 1 1.86-2.007 1.684 1.684 0 0 1 1.745 1.918V0h2.723v-6.251c0-2.288-1.342-3.695-3.388-3.695a2.966 2.966 0 0 0-2.953 1.86h-.115v-1.732h-2.6V0h2.723zM54.2-13.091h-2.725V0H54.2zM60.807.192c2.979 0 4.832-2.039 4.832-5.062 0-3.043-1.854-5.075-4.832-5.075s-4.832 2.033-4.832 5.075c0 3.023 1.854 5.062 4.832 5.062zm.013-2.109c-1.374 0-2.077-1.259-2.077-2.972s.7-2.979 2.077-2.979c1.349 0 2.052 1.266 2.052 2.979s-.703 2.971-2.052 2.971zm9.4 2.1a3.015 3.015 0 0 0 2.87-1.547h.077V0h2.582v-6.622c0-2.339-1.981-3.324-4.168-3.324-2.352 0-3.9 1.125-4.276 2.915l2.518.2a1.643 1.643 0 0 1 1.745-1.131c.927 0 1.457.467 1.457 1.272v.038c0 .633-.671.716-2.378.882-1.943.179-3.688.831-3.688 3.023C66.957-.8 68.344.185 70.217.185zM71-1.694c-.837 0-1.438-.39-1.438-1.138 0-.767.633-1.144 1.592-1.278a6.548 6.548 0 0 0 1.892-.441v1.042A1.884 1.884 0 0 1 71-1.694zM81.479.16a2.9 2.9 0 0 0 2.787-1.732h.115V0h2.685v-13.091h-2.717v4.922h-.083a2.893 2.893 0 0 0-2.793-1.777c-2.154 0-3.976 1.675-3.976 5.05C77.5-1.611 79.242.16 81.479.16zm.863-2.167c-1.336 0-2.065-1.189-2.065-2.9s.716-2.87 2.065-2.87c1.323 0 2.065 1.119 2.065 2.87s-.754 2.9-2.065 2.9z" transform="translate(93 24)" style="fill:#1c87af"/>
</svg>
