<svg data-name="Btn_Los geht´s!" xmlns="http://www.w3.org/2000/svg" width="273" height="35" viewBox="0 0 273 35">
    <g data-name="Rechteck 9" style="fill:#fff;stroke:#1c87af;stroke-width:2px">
        <rect width="273" height="35" rx="17.5" style="stroke:none"/>
        <rect x="1" y="1" width="271" height="33" rx="16.5" style="fill:none"/>
    </g>
    <path data-name="Pfad 71" d="M1.138 0h8.38v-2.282H3.905v-10.809H1.138zm14.6.192c2.979 0 4.832-2.039 4.832-5.062 0-3.043-1.854-5.075-4.832-5.075S10.9-7.913 10.9-4.871c0 3.024 1.858 5.063 4.837 5.063zm.013-2.109c-1.374 0-2.077-1.259-2.077-2.972s.7-2.979 2.077-2.979C17.1-7.868 17.8-6.6 17.8-4.89s-.7 2.972-2.05 2.972zm14.766-5.1c-.243-1.809-1.7-2.928-4.18-2.928-2.512 0-4.168 1.163-4.161 3.055-.006 1.47.92 2.423 2.838 2.806l1.7.339c.857.173 1.246.486 1.259.978-.013.582-.646 1-1.6 1a1.6 1.6 0 0 1-1.783-1.218l-2.678.141C22.168-.965 23.766.192 26.367.192c2.544 0 4.366-1.3 4.372-3.234-.006-1.42-.933-2.27-2.839-2.658l-1.776-.36c-.914-.2-1.253-.511-1.246-.984-.006-.588.658-.972 1.5-.972a1.534 1.534 0 0 1 1.643 1.151zm10.541 10.9c2.806 0 4.8-1.278 4.8-3.79v-9.911h-2.7v1.649h-.1a2.912 2.912 0 0 0-2.806-1.777c-2.154 0-3.976 1.675-3.976 5.018 0 3.266 1.771 4.788 3.982 4.788a2.851 2.851 0 0 0 2.8-1.6h.115v1.8c0 1.349-.863 1.873-2.045 1.873A1.945 1.945 0 0 1 39.087.812l-2.518.339c.326 1.549 1.841 2.735 4.487 2.735zm.058-6.072c-1.336 0-2.065-1.061-2.065-2.755 0-1.668.716-2.838 2.065-2.838 1.323 0 2.065 1.119 2.065 2.838s-.757 2.758-2.067 2.758zM52.5.192c2.429 0 4.065-1.183 4.449-3l-2.518-.166a1.849 1.849 0 0 1-1.886 1.138 2.135 2.135 0 0 1-2.224-2.365v-.006h6.686v-.753c0-3.337-2.02-4.986-4.615-4.986-2.889 0-4.762 2.052-4.762 5.082.004 3.113 1.851 5.056 4.87 5.056zM50.325-5.9a2.074 2.074 0 0 1 2.115-2.013A1.935 1.935 0 0 1 54.447-5.9zm11.186.224A1.828 1.828 0 0 1 63.4-7.683a1.68 1.68 0 0 1 1.751 1.918V0h2.723v-6.251c.006-2.3-1.349-3.695-3.394-3.695a2.9 2.9 0 0 0-2.934 1.86h-.115v-5h-2.643V0h2.723zm13.736-4.142H73.4v-2.352h-2.723v2.352h-1.342v2.045h1.342v5.114C70.664-.735 71.974.217 73.949.134a5.3 5.3 0 0 0 1.477-.256L75-2.148a3.72 3.72 0 0 1-.678.089c-.543 0-.92-.2-.92-.959v-4.755h1.847zm4.487-3.273h-2.045v1.391a4.559 4.559 0 0 1-.812 2.544l1.2.71a4.693 4.693 0 0 0 1.656-3.266zM88.5-7.018c-.243-1.809-1.7-2.928-4.18-2.928-2.512 0-4.168 1.163-4.161 3.055-.006 1.47.92 2.423 2.838 2.806l1.7.339c.857.173 1.246.486 1.259.978-.013.582-.646 1-1.6 1a1.6 1.6 0 0 1-1.783-1.214l-2.678.141C80.15-.965 81.748.192 84.349.192c2.544 0 4.366-1.3 4.372-3.234-.006-1.419-.933-2.269-2.838-2.659l-1.777-.359c-.914-.2-1.253-.511-1.246-.984-.006-.588.658-.972 1.5-.972A1.534 1.534 0 0 1 86-6.865zm5.2-6.072h-2.85l.256 9.166h2.339zM92.276.166a1.555 1.555 0 0 0 1.534-1.534 1.553 1.553 0 0 0-1.534-1.521 1.528 1.528 0 0 0-1.534 1.521A1.53 1.53 0 0 0 92.276.166z" transform="translate(90.978 24)" style="fill:#1c87af"/>
</svg>
