<svg data-name="Btn_Ok/Signup/Login" xmlns="http://www.w3.org/2000/svg" width="273" height="35" viewBox="0 0 273 35">
    <g data-name="Rechteck 9" style="fill:#fff;stroke:#1c87af;stroke-width:2px">
        <rect width="273" height="35" rx="17.5" style="stroke:none"/>
        <rect x="1" y="1" width="271" height="33" rx="16.5" style="fill:none"/>
    </g>
    <path data-name="Pfad 69" d="M-23.235 0h8.38v-2.282h-5.612v-10.809h-2.768zm14.6.192C-5.657.192-3.8-1.847-3.8-4.871c0-3.043-1.854-5.075-4.832-5.075s-4.832 2.033-4.832 5.075c-.004 3.024 1.85 5.063 4.828 5.063zm.013-2.109C-10-1.918-10.7-3.177-10.7-4.89s.7-2.979 2.077-2.979c1.349 0 2.052 1.266 2.052 2.979s-.703 2.972-2.052 2.972zM2.4 3.886c2.8 0 4.8-1.278 4.8-3.786v-9.918H4.5v1.649h-.1a2.912 2.912 0 0 0-2.815-1.777c-2.154 0-3.976 1.675-3.976 5.018C-2.391-1.662-.62-.14 1.591-.14a2.851 2.851 0 0 0 2.8-1.6h.115v1.8c0 1.349-.863 1.873-2.045 1.873A1.945 1.945 0 0 1 .428.812l-2.518.339C-1.764 2.7-.249 3.886 2.4 3.886zm.058-6.072C1.119-2.186.39-3.247.39-4.941c0-1.668.716-2.838 2.065-2.838 1.323 0 2.065 1.119 2.065 2.838s-.755 2.755-2.066 2.755zM9.371 0h2.723v-9.818H9.371zm1.368-11.084a1.435 1.435 0 0 0 1.477-1.381 1.434 1.434 0 0 0-1.477-1.374 1.432 1.432 0 0 0-1.47 1.374 1.433 1.433 0 0 0 1.47 1.381zm6.251 5.408a1.811 1.811 0 0 1 1.86-2.007 1.684 1.684 0 0 1 1.75 1.917V0h2.723v-6.251c0-2.288-1.342-3.695-3.388-3.695a2.966 2.966 0 0 0-2.953 1.86h-.115v-1.732h-2.6V0h2.723z" transform="translate(136.978 24)" style="fill:#1c87af"/>
</svg>
