<svg xmlns="http://www.w3.org/2000/svg" width="273" height="35" viewBox="0 0 273 35">
    <g data-name="Rechteck 9" style="fill:#1c87af;stroke:#1c87af;stroke-width:2px">
        <rect width="273" height="35" rx="17.5" style="stroke:none"/>
        <rect x="1" y="1" width="271" height="33" rx="16.5" style="fill:none"/>
    </g>
    <path data-name="Pfad 64" d="m3.394 0 .972-2.985h4.723L10.061 0h2.966L8.514-13.091H4.947L.428 0zm1.675-5.146L6.68-10.1h.1l1.613 4.954zM14.6 0h2.685v-1.572h.121A2.9 2.9 0 0 0 20.192.16c2.237 0 3.982-1.771 3.982-5.056 0-3.375-1.822-5.05-3.976-5.05a2.893 2.893 0 0 0-2.793 1.777h-.083v-4.922H14.6zm2.665-4.909c0-1.751.741-2.87 2.065-2.87 1.349 0 2.065 1.17 2.065 2.87s-.729 2.9-2.065 2.9c-1.311.002-2.065-1.149-2.065-2.9zm16.888-2.109c-.243-1.809-1.7-2.928-4.18-2.928-2.512 0-4.168 1.163-4.161 3.055-.006 1.47.92 2.423 2.838 2.806l1.7.339c.857.173 1.246.486 1.259.978-.013.582-.646 1-1.6 1a1.6 1.6 0 0 1-1.783-1.214l-2.678.141C25.8-.965 27.4.192 30 .192c2.544 0 4.366-1.3 4.372-3.234-.006-1.419-.933-2.269-2.838-2.659l-1.773-.359c-.914-.2-1.253-.511-1.246-.984-.006-.588.658-.972 1.5-.972a1.534 1.534 0 0 1 1.645 1.151zM40.57.192c2.429 0 4.065-1.183 4.449-3L42.5-2.979a1.849 1.849 0 0 1-1.886 1.138 2.135 2.135 0 0 1-2.224-2.365v-.006h6.686v-.748c0-3.337-2.02-4.986-4.615-4.986-2.889 0-4.762 2.052-4.762 5.082C35.7-1.751 37.547.192 40.57.192zM38.391-5.9a2.074 2.074 0 0 1 2.116-2.013A1.935 1.935 0 0 1 42.513-5.9zm11.186.224a1.811 1.811 0 0 1 1.86-2.007 1.684 1.684 0 0 1 1.745 1.918V0H55.9v-6.251c0-2.288-1.342-3.695-3.388-3.695a2.966 2.966 0 0 0-2.953 1.86h-.115v-1.732h-2.6V0h2.723zM61.664.16a2.9 2.9 0 0 0 2.787-1.732h.115V0h2.685v-13.091h-2.717v4.922h-.083a2.893 2.893 0 0 0-2.793-1.777c-2.154 0-3.976 1.675-3.976 5.05 0 3.285 1.745 5.056 3.982 5.056zm.863-2.167c-1.336 0-2.065-1.189-2.065-2.9s.716-2.87 2.065-2.87c1.323 0 2.065 1.119 2.065 2.87s-.755 2.9-2.065 2.9zM73.956.192c2.429 0 4.065-1.183 4.449-3l-2.518-.166A1.849 1.849 0 0 1 74-1.841a2.135 2.135 0 0 1-2.224-2.365v-.006h6.686v-.748c0-3.337-2.02-4.986-4.615-4.986-2.889 0-4.762 2.052-4.762 5.082 0 3.113 1.847 5.056 4.871 5.056zM71.776-5.9a2.074 2.074 0 0 1 2.116-2.013A1.935 1.935 0 0 1 75.9-5.9zm11.186.224a1.811 1.811 0 0 1 1.86-2.007 1.684 1.684 0 0 1 1.745 1.918V0h2.723v-6.251c0-2.288-1.342-3.695-3.388-3.695a2.966 2.966 0 0 0-2.953 1.86h-.115v-1.732h-2.6V0h2.723z" transform="translate(92 24)" style="fill:#fff"/>
</svg>
