<svg id="Avatar_groß" xmlns="http://www.w3.org/2000/svg" width="156" height="197.063" viewBox="0 0 156 197.063">
    <defs>
        <linearGradient id="linear-gradient" x1=".5" y1="1" x2=".5" gradientUnits="objectBoundingBox">
            <stop offset="0" stop-color="#1c87af"/>
            <stop offset="1" stop-color="#64d5ff"/>
        </linearGradient>
        <style>
            .cls-3{fill:#dec9b8}.cls-4{fill:#362619}.cls-5{fill:#583f34}
        </style>
    </defs>
    <g id="Gruppe_17" data-name="Gruppe 17" transform="translate(.288 42.173)">
        <g id="Gruppe_16" data-name="Gruppe 16">
            <circle id="Ellipse_1" data-name="Ellipse 1" cx="78" cy="78" r="78" transform="translate(-.288 -1.11)" style="fill:url(#linear-gradient)"/>
        </g>
    </g>
    <path id="Schnittmenge_1" data-name="Schnittmenge 1" d="M-.025 27a47.9 47.9 0 0 1 87.3 2.442A77.638 77.638 0 0 1 45.427 41.6 77.646 77.646 0 0 1-.025 27z" transform="translate(32.573 155.464)" style="fill:#c3f1ff"/>
    <path id="Schnittmenge_2" data-name="Schnittmenge 2" class="cls-3" d="M18347.494 7547.787a200.808 200.808 0 0 0 3.686-22.966c1.908-17.756 2.893-43.822 2.893-43.822h21.217s.982 26.066 2.9 43.822a201.051 201.051 0 0 0 3.68 22.94c-5.293 5.222-11.086 8.067-17.172 8.067s-11.889-2.836-17.204-8.041z" transform="translate(-18288 -7384.937)"/>
    <ellipse id="Ellipse_19" data-name="Ellipse 19" class="cls-4" cx="30.5" cy="31" rx="30.5" ry="31" transform="translate(48 .063)"/>
    <path id="Pfad_9" data-name="Pfad 9" class="cls-5" d="M14.367 57.157A31.221 31.221 0 0 1 3.945 46.139a30.954 30.954 0 0 1 1.349-32.473 31.086 31.086 0 0 1 13.637-11.23 30.985 30.985 0 0 1 27.208 1.509 31.221 31.221 0 0 1 11.02 10.424 30.955 30.955 0 0 0-33.956.462 31.086 31.086 0 0 0-11.23 13.637 31.053 31.053 0 0 0 2.395 28.689z" transform="translate(47.208)"/>
    <g id="Gruppe_18" data-name="Gruppe 18" transform="translate(30.615 100.931)">
        <ellipse id="Ellipse_20" data-name="Ellipse 20" class="cls-3" cx="8.5" cy="13" rx="8.5" ry="13" transform="translate(.385 .132)"/>
        <ellipse id="Ellipse_21" data-name="Ellipse 21" class="cls-3" cx="8" cy="13" rx="8" ry="13" transform="translate(78.385 .132)"/>
    </g>
    <ellipse id="Ellipse_16" data-name="Ellipse 16" cx="41" cy="57.5" rx="41" ry="57.5" transform="translate(37 40.063)" style="fill:#e5d7cc"/>
    <path id="Pfad_13" data-name="Pfad 13" class="cls-3" d="M3.594 115.381A31.083 31.083 0 0 1 0 115.172a31.824 31.824 0 0 0 7.813-1.952 35.8 35.8 0 0 0 7.237-3.842 42.535 42.535 0 0 0 6.517-5.535 50.968 50.968 0 0 0 5.654-7.03 59.838 59.838 0 0 0 4.648-8.328 67.946 67.946 0 0 0 3.5-9.428 76.685 76.685 0 0 0 2.97-21.367 76.684 76.684 0 0 0-2.97-21.367 67.944 67.944 0 0 0-3.5-9.428 59.839 59.839 0 0 0-4.648-8.328 50.967 50.967 0 0 0-5.654-7.03A42.535 42.535 0 0 0 15.05 6a35.8 35.8 0 0 0-7.237-3.839A31.825 31.825 0 0 0 0 .209a31.037 31.037 0 0 1 12.044.963 34.01 34.01 0 0 1 7.871 3.362 40.246 40.246 0 0 1 7.122 5.319 48.764 48.764 0 0 1 6.206 7.047 58.129 58.129 0 0 1 5.12 8.538 66.886 66.886 0 0 1 3.866 9.8 74.037 74.037 0 0 1 2.443 10.829 79.3 79.3 0 0 1 .852 11.627 79.3 79.3 0 0 1-.852 11.627 74.037 74.037 0 0 1-2.443 10.829 66.888 66.888 0 0 1-3.866 9.8 58.129 58.129 0 0 1-5.12 8.538 48.765 48.765 0 0 1-6.206 7.045 40.245 40.245 0 0 1-7.122 5.319 34.009 34.009 0 0 1-7.871 3.362 31.184 31.184 0 0 1-8.45 1.167z" transform="translate(74.076 40.083)"/>
    <path id="Pfad_12" data-name="Pfad 12" class="cls-4" d="M88.126 100.564a107.061 107.061 0 0 0-.951-21.41c-1.293-8.213-3.727-14.854-7.235-19.748C67.454 41.992 37.562 41.11 31.7 41.11c-.62 0-.956.01-.959.01a39.789 39.789 0 0 1-1.251 7.139 58.294 58.294 0 0 1-2.556 7.641 62.79 62.79 0 0 1-4.715 9.2c-1.936 3.117-3.228 8.121-3.841 14.873a138.6 138.6 0 0 0-.191 18.883 56.146 56.146 0 0 1-7.549-8.613A57.237 57.237 0 0 1 4.909 80.13a58.027 58.027 0 0 1-3.636-11.322A59.375 59.375 0 0 1 0 56.559a58.4 58.4 0 0 1 4.253-22.015 57.411 57.411 0 0 1 4.99-9.607 56.5 56.5 0 0 1 6.609-8.371 55.108 55.108 0 0 1 8.01-6.906 53.438 53.438 0 0 1 9.194-5.215 52.15 52.15 0 0 1 42.134 0 53.438 53.438 0 0 1 9.193 5.215 55.109 55.109 0 0 1 8.01 6.906A56.5 56.5 0 0 1 99 24.936a57.41 57.41 0 0 1 4.99 9.607 58.4 58.4 0 0 1 4.253 22.015 59.306 59.306 0 0 1-1.418 12.917 57.939 57.939 0 0 1-4.04 11.863 57.1 57.1 0 0 1-6.341 10.474 55.842 55.842 0 0 1-8.32 8.749z" transform="translate(23.842 24.797)"/>
    <path id="Pfad_10" data-name="Pfad 10" class="cls-5" d="M18.033 98.618a56.1 56.1 0 0 1-7.395-8.461 57.193 57.193 0 0 1-5.729-10.1 57.958 57.958 0 0 1-3.637-11.311A59.506 59.506 0 0 1 1.1 45.119a58.049 58.049 0 0 1 3.153-10.607 57.337 57.337 0 0 1 4.99-9.6 56.445 56.445 0 0 1 6.609-8.363 55.1 55.1 0 0 1 8.01-6.9 53.452 53.452 0 0 1 9.194-5.21 52.126 52.126 0 0 1 41.8-.146C62.095 3.7 36.76 5.7 21.1 28.153c-21.61 30.979-2.929 70.52-2.929 70.52z" transform="translate(23.842 24.797)"/>
</svg>
