<svg id="Avatar_klein" xmlns="http://www.w3.org/2000/svg" width="126" height="159.001" viewBox="0 0 126 159.001">
    <defs>
        <linearGradient id="linear-gradient" x1=".5" y1="1" x2=".5" gradientUnits="objectBoundingBox">
            <stop offset="0" stop-color="#1c87af"/>
            <stop offset="1" stop-color="#64d5ff"/>
        </linearGradient>
        <style>
            .cls-3{fill:#dec9b8}.cls-4{fill:#362619}.cls-5{fill:#583f34}
        </style>
    </defs>
    <g id="Gruppe_17" data-name="Gruppe 17" transform="translate(-.121 33.692)">
        <g id="Gruppe_16" data-name="Gruppe 16">
            <circle id="Ellipse_1" data-name="Ellipse 1" cx="63" cy="63" r="63" transform="translate(.121 -.692)" style="fill:url(#linear-gradient)"/>
        </g>
    </g>
    <path id="Schnittmenge_1" data-name="Schnittmenge 1" d="M.192 21.5a38.905 38.905 0 0 1 70.5 1.967 62.712 62.712 0 0 1-33.8 9.824A62.711 62.711 0 0 1 .192 21.5z" transform="translate(26.102 125.711)" style="fill:#d3f5ff"/>
    <path id="Schnittmenge_3" data-name="Schnittmenge 3" class="cls-3" d="M18347.492 7547.787c.8-4.381 2.006-12.12 2.938-22.966 1.52-17.756 2.3-43.822 2.3-43.822h16.9s.781 26.066 2.3 43.822c.93 10.824 2.133 18.555 2.93 22.94-4.215 5.222-8.828 8.067-13.672 8.067s-9.461-2.836-13.696-8.041z" transform="translate(-18299 -7417)"/>
    <circle id="Ellipse_19" data-name="Ellipse 19" class="cls-4" cx="25" cy="25" r="25" transform="translate(38)"/>
    <path id="Pfad_9" data-name="Pfad 9" class="cls-5" d="M11.582 45.863a25.1 25.1 0 0 1-8.4-8.841 24.748 24.748 0 0 1 1.085-26.057 25.044 25.044 0 0 1 41.812.564A25.021 25.021 0 0 0 9.652 22.842a24.814 24.814 0 0 0 1.931 23.02z" transform="translate(37.989)"/>
    <g id="Gruppe_18" data-name="Gruppe 18" transform="translate(24.512 81.417)">
        <ellipse id="Ellipse_20" data-name="Ellipse 20" class="cls-3" cx="6.5" cy="11" rx="6.5" ry="11" transform="translate(.488 -.417)"/>
        <ellipse id="Ellipse_21" data-name="Ellipse 21" class="cls-3" cx="6.5" cy="11" rx="6.5" ry="11" transform="translate(63.488 -.417)"/>
    </g>
    <ellipse id="Ellipse_16" data-name="Ellipse 16" cx="33" cy="46.5" rx="33" ry="46.5" transform="translate(30 32)" style="fill:#e5d7cc"/>
    <path id="Pfad_13" data-name="Pfad 13" class="cls-3" d="M2.919 93.717A25.247 25.247 0 0 1 0 93.547a25.849 25.849 0 0 0 6.346-1.585 29.081 29.081 0 0 0 5.878-3.121 34.549 34.549 0 0 0 5.294-4.5 41.4 41.4 0 0 0 4.593-5.71 48.6 48.6 0 0 0 3.775-6.764 55.188 55.188 0 0 0 2.841-7.658 62.287 62.287 0 0 0 2.413-17.355A62.286 62.286 0 0 0 28.726 29.5a55.188 55.188 0 0 0-2.841-7.658 48.6 48.6 0 0 0-3.775-6.764 41.4 41.4 0 0 0-4.593-5.71 34.549 34.549 0 0 0-5.294-4.5 29.081 29.081 0 0 0-5.877-3.113A25.849 25.849 0 0 0 0 .17a25.21 25.21 0 0 1 9.783.782 27.624 27.624 0 0 1 6.393 2.73A32.689 32.689 0 0 1 21.961 8 39.608 39.608 0 0 1 27 13.725a47.215 47.215 0 0 1 4.159 6.935 54.327 54.327 0 0 1 3.14 7.96 60.136 60.136 0 0 1 1.985 8.8 64.409 64.409 0 0 1 .692 9.444 64.41 64.41 0 0 1-.692 9.444A60.136 60.136 0 0 1 34.3 65.1a54.329 54.329 0 0 1-3.14 7.96A47.215 47.215 0 0 1 27 79.992a39.609 39.609 0 0 1-5.04 5.722 32.689 32.689 0 0 1-5.785 4.32 27.624 27.624 0 0 1-6.393 2.73 25.329 25.329 0 0 1-6.863.953z" transform="translate(59.812 31.994)"/>
    <path id="Pfad_12" data-name="Pfad 12" class="cls-4" d="M71.58 81.682a86.96 86.96 0 0 0-.772-17.39c-1.051-6.669-3.028-12.066-5.877-16.039-10.142-14.146-34.422-14.862-39.186-14.862-.5 0-.777.008-.779.008a32.318 32.318 0 0 1-1.016 5.8 47.349 47.349 0 0 1-2.073 6.2 51 51 0 0 1-3.83 7.469c-1.572 2.532-2.622 6.6-3.119 12.081a112.58 112.58 0 0 0-.155 15.337 45.6 45.6 0 0 1-6.132-7 46.49 46.49 0 0 1-4.653-8.211 47.132 47.132 0 0 1-2.954-9.2A48.227 48.227 0 0 1 0 45.94a47.433 47.433 0 0 1 3.455-17.882 46.632 46.632 0 0 1 4.053-7.8 45.9 45.9 0 0 1 5.368-6.8 44.762 44.762 0 0 1 6.506-5.61 43.4 43.4 0 0 1 7.467-4.238 42.359 42.359 0 0 1 34.223 0 43.4 43.4 0 0 1 7.468 4.236 44.762 44.762 0 0 1 6.506 5.61 45.894 45.894 0 0 1 5.368 6.8 46.63 46.63 0 0 1 4.053 7.8 47.434 47.434 0 0 1 3.455 17.884 48.171 48.171 0 0 1-1.152 10.491 47.061 47.061 0 0 1-3.281 9.636 46.376 46.376 0 0 1-5.15 8.508 45.357 45.357 0 0 1-6.758 7.106z" transform="translate(19.01 19.578)"/>
    <path id="Pfad_10" data-name="Pfad 10" class="cls-5" d="M14.647 80.1a45.566 45.566 0 0 1-6.007-6.871 46.455 46.455 0 0 1-4.653-8.2 47.076 47.076 0 0 1-2.954-9.188 48.334 48.334 0 0 1-.14-19.19 47.15 47.15 0 0 1 2.561-8.615 46.571 46.571 0 0 1 4.053-7.8 45.847 45.847 0 0 1 5.368-6.793 44.756 44.756 0 0 1 6.506-5.6 43.416 43.416 0 0 1 7.467-4.232A42.339 42.339 0 0 1 60.8 3.488C50.436 3 29.858 4.631 17.138 22.867c-17.552 25.162-2.379 57.279-2.379 57.279z" transform="translate(19.01 19.578)"/>
</svg>
