<svg id="Btn_Bearbeiten" xmlns="http://www.w3.org/2000/svg" width="45" height="45" viewBox="0 0 45 45">
    <defs>
        <style>
            .cls-3{stroke:none}
        </style>
    </defs>
    <g id="Ellipse_1" data-name="Ellipse 1" style="stroke:#1c87af;stroke-width:2px;fill:#fff">
        <circle class="cls-3" cx="22.5" cy="22.5" r="22.5"/>
        <circle cx="22.5" cy="22.5" r="21.5" style="fill:none"/>
    </g>
    <g id="Gruppe_68" data-name="Gruppe 68" transform="translate(12.754 7.563)">
        <g id="Vereinigungsmenge_1" data-name="Vereinigungsmenge 1" style="fill:#fff">
            <path class="cls-3" d="M3.279 29.863 1 26.768V3C1 1.897 1.897 1 3 1h.557c1.102 0 2 .897 2 2v23.768l-2.278 3.095z" transform="rotate(45 7.524 23.164)"/>
            <path d="m3.278 28.176 1.278-1.736V3c0-.551-.448-1-1-1h-.555C2.449 2 2 2.449 2 3v23.44l1.278 1.736m0 3.374L0 27.096V3.001C0 1.344 1.344 0 3 0h.557a3 3 0 0 1 3 3v24.096L3.278 31.55z" style="fill:#1c87af;stroke:none" transform="rotate(45 7.524 23.164)"/>
        </g>
    </g>
</svg>
