<svg id="Btn_Eintippen_Schnellbefehl" data-name="Btn_Eintippen/Schnellbefehl" xmlns="http://www.w3.org/2000/svg" width="60" height="60" viewBox="0 0 60 60">
    <defs>
        <style>
            .cls-1{fill:#fff;stroke:#1c87af;stroke-width:2px}.cls-3{stroke:none}.cls-4{fill:none}
        </style>
    </defs>
    <g id="Ellipse_1" data-name="Ellipse 1" class="cls-1">
        <circle class="cls-3" cx="30" cy="30" r="30"/>
        <circle class="cls-4" cx="30" cy="30" r="29"/>
    </g>
    <g id="Gruppe_68" data-name="Gruppe 68" transform="translate(12.592 8.648)">
        <g id="Rechteck_85" data-name="Rechteck 85" class="cls-1" transform="translate(1.408 5.352)">
            <rect class="cls-3" width="28" height="33" rx="5"/>
            <rect class="cls-4" x="1" y="1" width="26" height="31" rx="4"/>
        </g>
        <g id="Vereinigungsmenge_1" data-name="Vereinigungsmenge 1" style="fill:#fff">
            <path class="cls-3" d="M3.642 30.973 1 27.636V3.642A2.645 2.645 0 0 1 3.642 1a2.645 2.645 0 0 1 2.643 2.642v23.994l-2.643 3.337z" transform="rotate(45 7.889 45.53)"/>
            <path d="m3.642 29.362 1.643-2.074V3.642C5.285 2.737 4.548 2 3.642 2 2.737 2 2 2.737 2 3.642v23.646l1.642 2.074m0 3.222L0 27.984V3.642a3.642 3.642 0 0 1 7.285 0v24.342l-3.643 4.6z" style="fill:#1c87af;stroke:none" transform="rotate(45 7.889 45.53)"/>
        </g>
    </g>
</svg>
